<mxfile host="Electron" agent="Mozilla/5.0 (Windows NT 10.0; Win64; x64) AppleWebKit/537.36 (KHTML, like Gecko) draw.io/27.0.5 Chrome/134.0.6998.205 Electron/35.3.0 Safari/537.36" version="27.0.5">
  <diagram name="Page-1" id="nUcj20E5loexgPxwPfVq">
    <mxGraphModel dx="732" dy="358" grid="1" gridSize="10" guides="1" tooltips="1" connect="1" arrows="1" fold="1" page="1" pageScale="1" pageWidth="850" pageHeight="1100" math="0" shadow="0">
      <root>
        <mxCell id="0" />
        <mxCell id="1" parent="0" />
        <mxCell id="kj9L5W7UNKf32SmJq8hv-19" style="edgeStyle=orthogonalEdgeStyle;rounded=0;orthogonalLoop=1;jettySize=auto;html=1;exitX=0.5;exitY=1;exitDx=0;exitDy=0;entryX=0.5;entryY=0;entryDx=0;entryDy=0;" edge="1" parent="1" source="kj9L5W7UNKf32SmJq8hv-5" target="kj9L5W7UNKf32SmJq8hv-14">
          <mxGeometry relative="1" as="geometry" />
        </mxCell>
        <mxCell id="kj9L5W7UNKf32SmJq8hv-5" value="Ball" style="swimlane;fontStyle=0;childLayout=stackLayout;horizontal=1;startSize=30;horizontalStack=0;resizeParent=1;resizeParentMax=0;resizeLast=0;collapsible=1;marginBottom=0;whiteSpace=wrap;html=1;" vertex="1" parent="1">
          <mxGeometry x="280" y="120" width="160" height="60" as="geometry" />
        </mxCell>
        <mxCell id="kj9L5W7UNKf32SmJq8hv-7" value="Shootbutton" style="text;strokeColor=none;fillColor=none;align=left;verticalAlign=middle;spacingLeft=4;spacingRight=4;overflow=hidden;points=[[0,0.5],[1,0.5]];portConstraint=eastwest;rotatable=0;whiteSpace=wrap;html=1;" vertex="1" parent="kj9L5W7UNKf32SmJq8hv-5">
          <mxGeometry y="30" width="160" height="30" as="geometry" />
        </mxCell>
        <mxCell id="kj9L5W7UNKf32SmJq8hv-9" value="Player" style="swimlane;fontStyle=0;childLayout=stackLayout;horizontal=1;startSize=30;horizontalStack=0;resizeParent=1;resizeParentMax=0;resizeLast=0;collapsible=1;marginBottom=0;whiteSpace=wrap;html=1;" vertex="1" parent="1">
          <mxGeometry x="280" y="20" width="160" height="60" as="geometry" />
        </mxCell>
        <mxCell id="kj9L5W7UNKf32SmJq8hv-10" value="Ball" style="text;strokeColor=none;fillColor=none;align=left;verticalAlign=middle;spacingLeft=4;spacingRight=4;overflow=hidden;points=[[0,0.5],[1,0.5]];portConstraint=eastwest;rotatable=0;whiteSpace=wrap;html=1;" vertex="1" parent="kj9L5W7UNKf32SmJq8hv-9">
          <mxGeometry y="30" width="160" height="30" as="geometry" />
        </mxCell>
        <mxCell id="kj9L5W7UNKf32SmJq8hv-14" value="Shootbutton" style="swimlane;fontStyle=0;childLayout=stackLayout;horizontal=1;startSize=30;horizontalStack=0;resizeParent=1;resizeParentMax=0;resizeLast=0;collapsible=1;marginBottom=0;whiteSpace=wrap;html=1;" vertex="1" parent="1">
          <mxGeometry x="280" y="220" width="160" height="60" as="geometry" />
        </mxCell>
        <mxCell id="kj9L5W7UNKf32SmJq8hv-15" value="Color" style="text;strokeColor=none;fillColor=none;align=left;verticalAlign=middle;spacingLeft=4;spacingRight=4;overflow=hidden;points=[[0,0.5],[1,0.5]];portConstraint=eastwest;rotatable=0;whiteSpace=wrap;html=1;" vertex="1" parent="kj9L5W7UNKf32SmJq8hv-14">
          <mxGeometry y="30" width="160" height="30" as="geometry" />
        </mxCell>
        <mxCell id="kj9L5W7UNKf32SmJq8hv-20" value="" style="endArrow=classic;html=1;rounded=0;exitX=0.499;exitY=0.994;exitDx=0;exitDy=0;exitPerimeter=0;entryX=0.502;entryY=-0.049;entryDx=0;entryDy=0;entryPerimeter=0;" edge="1" parent="1" source="kj9L5W7UNKf32SmJq8hv-10" target="kj9L5W7UNKf32SmJq8hv-5">
          <mxGeometry width="50" height="50" relative="1" as="geometry">
            <mxPoint x="210" y="120" as="sourcePoint" />
            <mxPoint x="260" y="70" as="targetPoint" />
          </mxGeometry>
        </mxCell>
        <mxCell id="kj9L5W7UNKf32SmJq8hv-26" value="&lt;h1 style=&quot;margin-top: 0px;&quot;&gt;Scoring&lt;/h1&gt;&lt;p&gt;When ball enters a goal area, get the shootbutton that shot it&lt;/p&gt;" style="text;html=1;whiteSpace=wrap;overflow=hidden;rounded=0;" vertex="1" parent="1">
          <mxGeometry x="40" y="290" width="180" height="80" as="geometry" />
        </mxCell>
        <mxCell id="kj9L5W7UNKf32SmJq8hv-27" value="&lt;h1 style=&quot;margin-top: 0px;&quot;&gt;Getting the ball&lt;/h1&gt;&lt;div&gt;When a player touches the ball, remove the ball from the previous player and assign it to him, add the player as shooter to the ball&lt;/div&gt;" style="text;html=1;whiteSpace=wrap;overflow=hidden;rounded=0;" vertex="1" parent="1">
          <mxGeometry x="40" y="40" width="180" height="120" as="geometry" />
        </mxCell>
        <mxCell id="kj9L5W7UNKf32SmJq8hv-28" value="&lt;h1 style=&quot;margin-top: 0px;&quot;&gt;Shooting ball&lt;/h1&gt;&lt;div&gt;When a shootbutton shoots a ball, check whether that player has a ball, if so shoot the ball away.&lt;/div&gt;" style="text;html=1;whiteSpace=wrap;overflow=hidden;rounded=0;" vertex="1" parent="1">
          <mxGeometry x="40" y="170" width="180" height="120" as="geometry" />
        </mxCell>
      </root>
    </mxGraphModel>
  </diagram>
</mxfile>
